# Blender v2.80 (sub 75) OBJ File: 'Chair_Stefan_01.blend'
# www.blender.org
mtllib Chair_Stefan_01.mtl
o Cube.004_Cube.007
v -0.180991 0.530074 0.155155
v -0.186590 0.562822 0.155155
v -0.180991 0.530074 -0.155155
v -0.186590 0.562822 -0.155155
v -0.166911 0.532481 0.155155
v -0.172510 0.565230 0.155155
v -0.166911 0.532481 -0.155155
v -0.172510 0.565230 -0.155155
v -0.207562 0.004541 0.175135
v -0.207562 0.004541 0.140818
v -0.173244 0.004541 0.175135
v -0.173244 0.004541 0.140818
v -0.246568 0.881573 0.175135
v -0.246568 0.881573 0.140818
v -0.215537 0.887509 0.175135
v -0.215537 0.887509 0.140818
v -0.182101 0.302531 0.175135
v -0.188475 0.499154 0.175135
v -0.179993 0.347844 0.175135
v -0.180464 0.401122 0.175135
v -0.183443 0.454255 0.175135
v -0.188475 0.499154 0.140818
v -0.182101 0.302531 0.140818
v -0.183443 0.454255 0.140818
v -0.180464 0.401122 0.140818
v -0.179993 0.347844 0.140818
v -0.154636 0.499149 0.175135
v -0.147784 0.302531 0.175135
v -0.149421 0.454252 0.175135
v -0.146287 0.401121 0.175135
v -0.145712 0.347843 0.175135
v -0.154636 0.499149 0.140818
v -0.147784 0.302531 0.140818
v -0.149421 0.454252 0.140818
v -0.146287 0.401121 0.140818
v -0.145712 0.347843 0.140818
v 0.155332 0.000652 0.193684
v 0.155332 0.000652 0.159367
v 0.189649 0.000652 0.193684
v 0.189649 0.000652 0.159367
v 0.189649 0.424212 0.159367
v 0.189649 0.424212 0.193684
v 0.155332 0.424212 0.159367
v 0.155332 0.424212 0.193684
v -0.169719 0.137600 0.170763
v -0.169719 0.137600 0.145190
v -0.169719 0.112027 0.170763
v -0.169719 0.112027 0.145190
v 0.165352 0.123774 0.163739
v 0.165352 0.123774 0.189312
v 0.165352 0.149348 0.163739
v 0.165352 0.149348 0.189312
v -0.207562 0.004541 -0.175135
v -0.207562 0.004541 -0.140818
v -0.173244 0.004541 -0.175135
v -0.173244 0.004541 -0.140818
v -0.246568 0.881573 -0.175135
v -0.246568 0.881573 -0.140818
v -0.215537 0.887509 -0.175135
v -0.215537 0.887509 -0.140818
v -0.182101 0.302531 -0.175135
v -0.188475 0.499153 -0.175135
v -0.179993 0.347844 -0.175135
v -0.180464 0.401122 -0.175135
v -0.183443 0.454255 -0.175135
v -0.188475 0.499153 -0.140818
v -0.182101 0.302531 -0.140818
v -0.183443 0.454255 -0.140818
v -0.180464 0.401122 -0.140818
v -0.179993 0.347844 -0.140818
v -0.154636 0.499149 -0.175135
v -0.147783 0.302531 -0.175135
v -0.149421 0.454252 -0.175135
v -0.146287 0.401121 -0.175135
v -0.145712 0.347843 -0.175135
v -0.154636 0.499149 -0.140818
v -0.147783 0.302531 -0.140818
v -0.149421 0.454252 -0.140818
v -0.146287 0.401121 -0.140818
v -0.145712 0.347843 -0.140818
v 0.155332 0.000652 -0.193684
v 0.155332 0.000652 -0.159367
v 0.189649 0.000652 -0.193684
v 0.189649 0.000652 -0.159367
v 0.189649 0.424212 -0.159367
v 0.189649 0.424212 -0.193684
v 0.155332 0.424212 -0.159367
v 0.155332 0.424212 -0.193684
v -0.169719 0.137600 -0.170763
v -0.169719 0.137600 -0.145190
v -0.169719 0.112027 -0.170763
v -0.169719 0.112027 -0.145190
v 0.165352 0.123774 -0.163739
v 0.165352 0.123774 -0.189312
v 0.165352 0.149348 -0.163739
v 0.165352 0.149348 -0.189312
v -0.174912 0.411757 0.162041
v -0.174912 0.432357 0.162041
v 0.201893 0.424271 0.205582
v 0.201893 0.444870 0.205582
v -0.174912 0.411757 -0.162041
v -0.174912 0.432357 -0.162041
v 0.201893 0.424271 -0.205582
v 0.201893 0.444870 -0.205582
v -0.174912 0.411757 0.000000
v -0.174912 0.432357 0.000000
v 0.201893 0.424271 0.000000
v 0.201893 0.444870 0.000000
v -0.226337 0.818379 0.155155
v -0.234970 0.868879 0.155155
v -0.226337 0.818379 -0.155155
v -0.234970 0.868879 -0.155155
v -0.212136 0.820807 0.155155
v -0.220770 0.871307 0.155155
v -0.212136 0.820807 -0.155155
v -0.220770 0.871307 -0.155155
v -0.180556 0.555232 0.048539
v -0.180556 0.555232 0.078190
v -0.225507 0.832174 0.048539
v -0.225507 0.832174 0.078190
v -0.172080 0.555232 0.048539
v -0.172080 0.555232 0.078190
v -0.217031 0.832174 0.048539
v -0.217031 0.832174 0.078190
v -0.180556 0.555232 -0.017218
v -0.180556 0.555232 0.012433
v -0.225507 0.832174 -0.017218
v -0.225507 0.832174 0.012433
v -0.172080 0.555232 -0.017218
v -0.172080 0.555232 0.012433
v -0.217031 0.832174 -0.017218
v -0.217031 0.832174 0.012433
v -0.180556 0.555232 -0.083281
v -0.180556 0.555232 -0.053630
v -0.225507 0.832174 -0.083281
v -0.225507 0.832174 -0.053630
v -0.172080 0.555232 -0.083281
v -0.172080 0.555232 -0.053630
v -0.217031 0.832174 -0.083281
v -0.217031 0.832174 -0.053630
vt 0.366630 0.656249
vt 0.339278 0.656249
vt 0.339278 0.373993
vt 0.366630 0.373993
vt 0.399678 0.743138
vt 0.399678 0.773358
vt 0.387838 0.773358
vt 0.387838 0.743138
vt 0.339278 0.656249
vt 0.311922 0.656249
vt 0.311922 0.373993
vt 0.339278 0.373993
vt 0.399678 0.773358
vt 0.399678 0.743138
vt 0.411518 0.743138
vt 0.411518 0.773358
vt 0.359147 0.938505
vt 0.347411 0.938505
vt 0.347411 0.656249
vt 0.359147 0.656249
vt 0.335635 0.656249
vt 0.347411 0.656249
vt 0.347411 0.938505
vt 0.335635 0.938505
vt 0.656164 0.353990
vt 0.628144 0.355362
vt 0.664271 0.000000
vt 0.690185 0.004140
vt 0.758833 0.448695
vt 0.786853 0.450067
vt 0.820875 0.799917
vt 0.794960 0.804057
vt 0.943110 0.798503
vt 0.943110 0.529051
vt 0.971555 0.529051
vt 0.971555 0.798503
vt 0.493659 0.742286
vt 0.465233 0.742286
vt 0.465233 0.711071
vt 0.493659 0.711071
vt 0.886219 0.448323
vt 0.914664 0.448323
vt 0.914664 0.804047
vt 0.886219 0.804047
vt 0.421045 0.743138
vt 0.395056 0.743138
vt 0.395056 0.711923
vt 0.421045 0.711923
vt 0.914664 0.000000
vt 0.914664 0.269405
vt 0.886219 0.269405
vt 0.886219 0.000000
vt 0.820875 0.001387
vt 0.788817 0.271139
vt 0.760400 0.269752
vt 0.792458 0.000000
vt 0.971555 0.350147
vt 0.943110 0.350147
vt 0.943110 0.000000
vt 0.971555 0.000000
vt 0.971555 0.391171
vt 0.943110 0.391171
vt 0.971555 0.439576
vt 0.943110 0.439576
vt 0.971555 0.487993
vt 0.943110 0.487993
vt 0.756168 0.407687
vt 0.784340 0.409064
vt 0.755530 0.359280
vt 0.783831 0.360662
vt 0.757016 0.310844
vt 0.785403 0.312229
vt 0.886219 0.407289
vt 0.914664 0.407289
vt 0.886219 0.358878
vt 0.914664 0.358878
vt 0.886219 0.310459
vt 0.914664 0.310459
vt 0.653651 0.394993
vt 0.625479 0.396370
vt 0.653142 0.443394
vt 0.624841 0.444777
vt 0.654714 0.491827
vt 0.626327 0.493213
vt 0.658128 0.532918
vt 0.629711 0.534305
vt 0.661769 0.804057
vt 0.690185 0.802670
vt 0.451290 0.711782
vt 0.451290 0.742997
vt 0.422906 0.742997
vt 0.422906 0.711783
vt 0.112806 0.373993
vt 0.141251 0.373993
vt 0.141251 0.759259
vt 0.112806 0.759259
vt 0.283477 0.373993
vt 0.311922 0.373993
vt 0.311922 0.758698
vt 0.283477 0.758698
vt 0.141251 0.373993
vt 0.169696 0.373993
vt 0.169696 0.759259
vt 0.141251 0.759259
vt 0.395056 0.711923
vt 0.366630 0.711923
vt 0.366630 0.680709
vt 0.395056 0.680709
vt 0.255031 0.758724
vt 0.226586 0.758724
vt 0.226586 0.373993
vt 0.255031 0.373993
vt 0.430124 0.766258
vt 0.430124 0.742997
vt 0.451290 0.742997
vt 0.451290 0.766258
vt 0.472475 0.374807
vt 0.493659 0.373993
vt 0.493659 0.679042
vt 0.472475 0.679856
vt 0.387795 0.679424
vt 0.366630 0.680709
vt 0.366630 0.375277
vt 0.387795 0.373993
vt 0.536028 0.679681
vt 0.514844 0.678865
vt 0.514844 0.373993
vt 0.536028 0.374808
vt 0.451323 0.742286
vt 0.472491 0.742286
vt 0.472491 0.765547
vt 0.451323 0.765547
vt 0.430125 0.680568
vt 0.408960 0.679282
vt 0.408960 0.373993
vt 0.430125 0.375278
vt 0.852198 0.450067
vt 0.886219 0.799917
vt 0.860305 0.804057
vt 0.824177 0.448695
vt 0.693488 0.355362
vt 0.729616 0.000000
vt 0.755530 0.004140
vt 0.721509 0.353990
vt 0.971555 0.000000
vt 1.000000 0.000000
vt 1.000000 0.269452
vt 0.971555 0.269452
vt 0.422864 0.711783
vt 0.422864 0.680568
vt 0.451290 0.680568
vt 0.451290 0.711783
vt 0.914664 0.355723
vt 0.914664 0.000000
vt 0.943110 0.000000
vt 0.943110 0.355723
vt 0.395056 0.711923
vt 0.395056 0.680709
vt 0.421045 0.680709
vt 0.421045 0.711923
vt 0.943110 0.804047
vt 0.914664 0.804047
vt 0.914664 0.534642
vt 0.943110 0.534642
vt 0.755530 0.802670
vt 0.727113 0.804057
vt 0.695055 0.534305
vt 0.723472 0.532918
vt 1.000000 0.448356
vt 1.000000 0.798503
vt 0.971555 0.798503
vt 0.971555 0.448356
vt 0.971555 0.407333
vt 1.000000 0.407333
vt 0.971555 0.358928
vt 1.000000 0.358928
vt 0.971555 0.310511
vt 1.000000 0.310511
vt 0.718996 0.394992
vt 0.690823 0.396370
vt 0.718486 0.443394
vt 0.690185 0.444777
vt 0.720058 0.491827
vt 0.691672 0.493213
vt 0.943110 0.396757
vt 0.914664 0.396757
vt 0.943110 0.445169
vt 0.914664 0.445169
vt 0.943110 0.493587
vt 0.914664 0.493587
vt 0.821512 0.407687
vt 0.849685 0.409064
vt 0.820875 0.359280
vt 0.849175 0.360662
vt 0.822361 0.310844
vt 0.850747 0.312229
vt 0.825745 0.269752
vt 0.854161 0.271139
vt 0.857802 0.000000
vt 0.886219 0.001387
vt 0.366672 0.711923
vt 0.395056 0.711923
vt 0.395056 0.743138
vt 0.366672 0.743138
vt 0.198141 0.373993
vt 0.198141 0.759259
vt 0.169696 0.759259
vt 0.169696 0.373993
vt 0.255031 0.758698
vt 0.255031 0.373993
vt 0.283477 0.373993
vt 0.283477 0.758698
vt 0.084361 0.759259
vt 0.084361 0.373993
vt 0.112806 0.373993
vt 0.112806 0.759259
vt 0.465233 0.711071
vt 0.465233 0.679856
vt 0.493659 0.679856
vt 0.493659 0.711071
vt 0.198141 0.758724
vt 0.198141 0.373993
vt 0.226586 0.373993
vt 0.226586 0.758724
vt 0.366672 0.743138
vt 0.387838 0.743138
vt 0.387838 0.766399
vt 0.366672 0.766399
vt 0.451290 0.679042
vt 0.451290 0.373993
vt 0.472475 0.374807
vt 0.472475 0.679856
vt 0.387795 0.679424
vt 0.387795 0.373993
vt 0.408960 0.375277
vt 0.408960 0.680709
vt 0.514844 0.373993
vt 0.514844 0.678865
vt 0.493659 0.679681
vt 0.493659 0.374808
vt 0.472491 0.765547
vt 0.472491 0.742286
vt 0.493659 0.742286
vt 0.493659 0.765547
vt 0.430125 0.680568
vt 0.430125 0.375278
vt 0.451290 0.373993
vt 0.451290 0.679282
vt 0.553078 0.560989
vt 0.536028 0.560989
vt 0.536028 0.373993
vt 0.553078 0.373993
vt 0.066221 0.999378
vt 0.049155 1.000000
vt 0.049155 0.656870
vt 0.066221 0.656249
vt 0.312501 0.186996
vt 0.000000 0.186996
vt 0.000000 0.000000
vt 0.312501 0.039605
vt 0.624841 0.186996
vt 0.312502 0.186996
vt 0.312501 0.039605
vt 0.624841 0.000000
vt 0.083272 0.951032
vt 0.066221 0.951032
vt 0.066221 0.803640
vt 0.083272 0.803640
vt 0.553078 0.747985
vt 0.536028 0.747985
vt 0.619299 0.374614
vt 0.619299 0.717744
vt 0.602234 0.717122
vt 0.602234 0.373993
vt 0.312501 0.334388
vt 0.000000 0.373993
vt 0.624841 0.373993
vt 0.312501 0.334388
vt 0.083272 0.656249
vt 0.066221 0.656249
vt 0.084361 0.656249
vt 0.042184 0.656249
vt 0.042184 0.373993
vt 0.084361 0.373993
vt 0.602234 0.764344
vt 0.602234 0.717744
vt 0.614175 0.717744
vt 0.614175 0.764344
vt 0.042184 0.656249
vt 0.000000 0.656249
vt 0.000000 0.373993
vt 0.042184 0.373993
vt 0.451290 0.726457
vt 0.451290 0.679856
vt 0.463231 0.679856
vt 0.463231 0.726457
vt 0.335635 0.938505
vt 0.323799 0.938505
vt 0.323799 0.656249
vt 0.335635 0.656249
vt 0.311922 0.656249
vt 0.323799 0.656249
vt 0.323799 0.938505
vt 0.311922 0.938505
vt 0.000000 0.656249
vt 0.024578 0.656249
vt 0.024578 0.909958
vt 0.000000 0.909958
vt 0.500670 0.733622
vt 0.500670 0.760592
vt 0.493659 0.760592
vt 0.493659 0.733622
vt 0.602234 0.881480
vt 0.577656 0.881480
vt 0.577656 0.627736
vt 0.602234 0.627736
vt 0.614175 0.744714
vt 0.614175 0.717744
vt 0.621196 0.717744
vt 0.621196 0.744714
vt 0.515223 0.936118
vt 0.508288 0.934882
vt 0.508288 0.679681
vt 0.515223 0.680916
vt 0.359147 0.657484
vt 0.366082 0.656249
vt 0.366082 0.911450
vt 0.359147 0.912686
vt 0.024578 0.656249
vt 0.049155 0.656249
vt 0.049155 0.909958
vt 0.024578 0.909958
vt 0.429917 0.742997
vt 0.429917 0.769968
vt 0.422906 0.769968
vt 0.422906 0.742997
vt 0.602234 0.627736
vt 0.577656 0.627736
vt 0.577656 0.373993
vt 0.602234 0.373993
vt 0.493659 0.733622
vt 0.493659 0.706651
vt 0.500681 0.706651
vt 0.500681 0.733622
vt 0.522158 0.679681
vt 0.529093 0.680916
vt 0.529093 0.936118
vt 0.522158 0.934882
vt 0.529093 0.680916
vt 0.536028 0.679681
vt 0.536028 0.934882
vt 0.529093 0.936118
vt 0.553078 0.627736
vt 0.577656 0.627736
vt 0.577656 0.881445
vt 0.553078 0.881445
vt 0.418528 0.743138
vt 0.418528 0.770108
vt 0.411518 0.770108
vt 0.411518 0.743138
vt 0.577656 0.627736
vt 0.553078 0.627736
vt 0.553078 0.373993
vt 0.577656 0.373993
vt 0.493659 0.706651
vt 0.493659 0.679681
vt 0.500681 0.679681
vt 0.500681 0.706651
vt 0.522158 0.936118
vt 0.515223 0.934882
vt 0.515223 0.679681
vt 0.522158 0.680916
vt 0.508288 0.934882
vt 0.501353 0.936118
vt 0.501353 0.680916
vt 0.508288 0.679681
vn -0.9857 -0.1685 0.0000
vn 0.0000 0.0000 -1.0000
vn 0.9857 0.1685 0.0000
vn 0.0000 0.0000 1.0000
vn 0.1685 -0.9857 0.0000
vn -0.1685 0.9857 0.0000
vn -0.9964 0.0851 0.0000
vn 0.0000 -1.0000 0.0000
vn 0.9879 0.1549 0.0000
vn -0.1879 0.9822 0.0000
vn 0.9964 -0.0851 0.0000
vn -0.9887 -0.1502 0.0000
vn -0.9938 -0.1114 0.0000
vn -0.9984 -0.0560 0.0000
vn -1.0000 -0.0088 0.0000
vn -0.9989 0.0465 0.0000
vn 0.9933 0.1154 0.0000
vn 0.9983 0.0589 0.0000
vn 0.9999 0.0108 0.0000
vn 0.9990 -0.0457 0.0000
vn -0.0000 1.0000 0.0000
vn 1.0000 0.0000 0.0000
vn -1.0000 0.0000 0.0000
vn -0.0553 -0.0000 0.9985
vn 0.0350 -0.9994 0.0000
vn 0.0553 0.0000 -0.9985
vn -0.0350 0.9994 0.0000
vn -0.0553 0.0000 -0.9985
vn 0.0553 0.0000 0.9985
vn -0.1148 0.0000 0.9934
vn 0.0332 -0.9994 0.0000
vn -0.0332 0.9994 -0.0000
vn -0.1148 0.0000 -0.9934
vn -0.9871 -0.1602 0.0000
vn 0.9871 0.1602 0.0000
usemtl None
s off
f 1/1/1 2/2/1 4/3/1 3/4/1
f 3/5/2 4/6/2 8/7/2 7/8/2
f 7/9/3 8/10/3 6/11/3 5/12/3
f 5/13/4 6/14/4 2/15/4 1/16/4
f 3/17/5 7/18/5 5/19/5 1/20/5
f 8/21/6 4/22/6 2/23/6 6/24/6
f 18/25/4 27/26/4 15/27/4 13/28/4
f 32/29/2 22/30/2 14/31/2 16/32/2
f 9/33/7 17/34/7 23/35/7 10/36/7
f 10/37/8 12/38/8 11/39/8 9/40/8
f 27/41/9 32/42/9 16/43/9 15/44/9
f 16/45/10 14/46/10 13/47/10 15/48/10
f 12/49/11 33/50/11 28/51/11 11/52/11
f 10/53/2 23/54/2 33/55/2 12/56/2
f 22/57/12 18/58/12 13/59/12 14/60/12
f 18/58/13 22/57/13 24/61/13 21/62/13
f 21/62/14 24/61/14 25/63/14 20/64/14
f 20/64/15 25/63/15 26/65/15 19/66/15
f 19/66/16 26/65/16 23/35/16 17/34/16
f 22/30/2 32/29/2 34/67/2 24/68/2
f 24/68/2 34/67/2 35/69/2 25/70/2
f 25/70/2 35/69/2 36/71/2 26/72/2
f 26/72/2 36/71/2 33/55/2 23/54/2
f 32/42/17 27/41/17 29/73/17 34/74/17
f 34/74/18 29/73/18 30/75/18 35/76/18
f 35/76/19 30/75/19 31/77/19 36/78/19
f 36/78/20 31/77/20 28/51/20 33/50/20
f 27/26/4 18/25/4 21/79/4 29/80/4
f 29/80/4 21/79/4 20/81/4 30/82/4
f 30/82/4 20/81/4 19/83/4 31/84/4
f 31/84/4 19/83/4 17/85/4 28/86/4
f 11/87/4 28/86/4 17/85/4 9/88/4
f 38/89/21 37/90/21 39/91/21 40/92/21
f 38/93/4 40/94/4 41/95/4 43/96/4
f 37/97/22 38/98/22 43/99/22 44/100/22
f 39/101/2 37/102/2 44/103/2 42/104/2
f 43/105/8 41/106/8 42/107/8 44/108/8
f 40/109/23 39/110/23 42/111/23 41/112/23
f 46/113/22 45/114/22 47/115/22 48/116/22
f 46/117/24 48/118/24 49/119/24 51/120/24
f 45/121/25 46/122/25 51/123/25 52/124/25
f 47/125/26 45/126/26 52/127/26 50/128/26
f 51/129/23 49/130/23 50/131/23 52/132/23
f 48/133/27 47/134/27 50/135/27 49/136/27
f 62/137/2 57/138/2 59/139/2 71/140/2
f 76/141/4 60/142/4 58/143/4 66/144/4
f 53/145/7 54/146/7 67/147/7 61/148/7
f 54/149/8 53/150/8 55/151/8 56/152/8
f 71/153/9 59/154/9 60/155/9 76/156/9
f 60/157/10 59/158/10 57/159/10 58/160/10
f 56/161/11 55/162/11 72/163/11 77/164/11
f 54/165/4 56/166/4 77/167/4 67/168/4
f 66/169/12 58/170/12 57/171/12 62/172/12
f 62/172/13 65/173/13 68/174/13 66/169/13
f 65/173/14 64/175/14 69/176/14 68/174/14
f 64/175/15 63/177/15 70/178/15 69/176/15
f 63/177/16 61/148/16 67/147/16 70/178/16
f 66/144/4 68/179/4 78/180/4 76/141/4
f 68/179/4 69/181/4 79/182/4 78/180/4
f 69/181/4 70/183/4 80/184/4 79/182/4
f 70/183/4 67/168/4 77/167/4 80/184/4
f 76/156/17 78/185/17 73/186/17 71/153/17
f 78/185/18 79/187/18 74/188/18 73/186/18
f 79/187/19 80/189/19 75/190/19 74/188/19
f 80/189/20 77/164/20 72/163/20 75/190/20
f 71/140/2 73/191/2 65/192/2 62/137/2
f 73/191/2 74/193/2 64/194/2 65/192/2
f 74/193/2 75/195/2 63/196/2 64/194/2
f 75/195/2 72/197/2 61/198/2 63/196/2
f 55/199/2 53/200/2 61/198/2 72/197/2
f 82/201/21 84/202/21 83/203/21 81/204/21
f 82/205/2 87/206/2 85/207/2 84/208/2
f 81/209/22 88/210/22 87/211/22 82/212/22
f 83/213/4 86/214/4 88/215/4 81/216/4
f 87/217/8 88/218/8 86/219/8 85/220/8
f 84/221/23 85/222/23 86/223/23 83/224/23
f 90/225/22 92/226/22 91/227/22 89/228/22
f 90/229/28 95/230/28 93/231/28 92/232/28
f 89/233/25 96/234/25 95/235/25 90/236/25
f 91/237/29 94/238/29 96/239/29 89/240/29
f 95/241/23 96/242/23 94/243/23 93/244/23
f 92/245/27 93/246/27 94/247/27 91/248/27
f 107/249/22 108/250/22 100/251/22 99/252/22
f 99/253/30 100/254/30 98/255/30 97/256/30
f 105/257/31 107/258/31 99/259/31 97/260/31
f 108/261/32 106/262/32 98/263/32 100/264/32
f 97/265/23 98/266/23 106/267/23 105/268/23
f 107/249/22 103/269/22 104/270/22 108/250/22
f 103/271/33 101/272/33 102/273/33 104/274/33
f 105/257/31 101/275/31 103/276/31 107/258/31
f 108/261/32 104/277/32 102/278/32 106/262/32
f 101/279/23 105/268/23 106/267/23 102/280/23
f 109/281/1 110/282/1 112/283/1 111/284/1
f 111/285/2 112/286/2 116/287/2 115/288/2
f 115/289/3 116/290/3 114/291/3 113/292/3
f 113/293/4 114/294/4 110/295/4 109/296/4
f 111/297/5 115/298/5 113/299/5 109/300/5
f 116/301/6 112/302/6 110/303/6 114/304/6
f 117/305/34 118/306/34 120/307/34 119/308/34
f 119/309/21 120/310/21 124/311/21 123/312/21
f 123/313/35 124/314/35 122/315/35 121/316/35
f 121/317/8 122/318/8 118/319/8 117/320/8
f 119/321/2 123/322/2 121/323/2 117/324/2
f 124/325/4 120/326/4 118/327/4 122/328/4
f 125/329/34 126/330/34 128/331/34 127/332/34
f 127/333/21 128/334/21 132/335/21 131/336/21
f 131/337/35 132/338/35 130/339/35 129/340/35
f 129/341/8 130/342/8 126/343/8 125/344/8
f 127/345/2 131/346/2 129/347/2 125/348/2
f 132/349/4 128/350/4 126/351/4 130/352/4
f 133/353/34 134/354/34 136/355/34 135/356/34
f 135/357/21 136/358/21 140/359/21 139/360/21
f 139/361/35 140/362/35 138/363/35 137/364/35
f 137/365/8 138/366/8 134/367/8 133/368/8
f 135/369/2 139/370/2 137/371/2 133/372/2
f 140/373/4 136/374/4 134/375/4 138/376/4
